<svg width="20" height="20" viewBox="0 0 20 20" fill="none" xmlns="http://www.w3.org/2000/svg">
<path d="M15 13.125H16.25V16.25H15V13.125ZM12.5 10H13.75V16.25H12.5V10ZM6.875 16.25C6.0465 16.249 5.25222 15.9194 4.66639 15.3336C4.08055 14.7478 3.75099 13.9535 3.75 13.125H5C5 13.4958 5.10997 13.8584 5.31599 14.1667C5.52202 14.475 5.81486 14.7154 6.15747 14.8573C6.50008 14.9992 6.87708 15.0363 7.24079 14.964C7.60451 14.8916 7.9386 14.713 8.20083 14.4508C8.46305 14.1886 8.64163 13.8545 8.71397 13.4908C8.78632 13.1271 8.74919 12.7501 8.60727 12.4075C8.46536 12.0649 8.22504 11.772 7.91669 11.566C7.60835 11.36 7.24584 11.25 6.875 11.25V10C7.7038 10 8.49866 10.3292 9.08471 10.9153C9.67076 11.5013 10 12.2962 10 13.125C10 13.9538 9.67076 14.7487 9.08471 15.3347C8.49866 15.9208 7.7038 16.25 6.875 16.25Z" fill="#495057"/>
<path d="M17.5 1.25H2.5C2.16848 1.25 1.85054 1.3817 1.61612 1.61612C1.3817 1.85054 1.25 2.16848 1.25 2.5V17.5C1.25 17.8315 1.3817 18.1495 1.61612 18.3839C1.85054 18.6183 2.16848 18.75 2.5 18.75H17.5C17.8314 18.7495 18.149 18.6176 18.3833 18.3833C18.6176 18.149 18.7495 17.8314 18.75 17.5V2.5C18.75 2.16848 18.6183 1.85054 18.3839 1.61612C18.1495 1.3817 17.8315 1.25 17.5 1.25ZM17.5 6.875H8.75V2.5H17.5V6.875ZM7.5 2.5V6.875H2.5V2.5H7.5ZM2.5 17.5V8.125H17.5L17.5013 17.5H2.5Z" fill="#495057"/>
</svg>
