<svg width="24" height="25" viewBox="0 0 24 25" fill="none" xmlns="http://www.w3.org/2000/svg">
<mask id="mask0_1_3636" style="mask-type:alpha" maskUnits="userSpaceOnUse" x="2" y="2" width="20" height="21">
<path fill-rule="evenodd" clip-rule="evenodd" d="M19.5022 12.1055C19.5022 12.4455 19.4722 12.7655 19.4322 13.0855L21.5422 14.7355C21.7322 14.8855 21.7822 15.1555 21.6622 15.3755L19.6622 18.8355C19.5422 19.0555 19.2822 19.1455 19.0522 19.0555L16.5622 18.0555C16.0422 18.4455 15.4822 18.7855 14.8722 19.0355L14.4922 21.6855C14.4622 21.9255 14.2522 22.1055 14.0022 22.1055H10.0022C9.75216 22.1055 9.54216 21.9255 9.51216 21.6855L9.13216 19.0355C8.52216 18.7855 7.96216 18.4555 7.44216 18.0555L4.95216 19.0555C4.73216 19.1355 4.46216 19.0555 4.34216 18.8355L2.34216 15.3755C2.22216 15.1555 2.27216 14.8855 2.46216 14.7355L4.57216 13.0855C4.53216 12.7655 4.50216 12.4355 4.50216 12.1055C4.50216 11.7755 4.53216 11.4455 4.57216 11.1255L2.46216 9.47548C2.27216 9.32548 2.21216 9.05548 2.34216 8.83548L4.34216 5.37548C4.46216 5.15548 4.72216 5.06548 4.95216 5.15548L7.44216 6.15548C7.96216 5.76548 8.52216 5.42548 9.13216 5.17548L9.51216 2.52548C9.54216 2.28548 9.75216 2.10548 10.0022 2.10548H14.0022C14.2522 2.10548 14.4622 2.28548 14.4922 2.52548L14.8722 5.17548C15.4822 5.42548 16.0422 5.75548 16.5622 6.15548L19.0522 5.15548C19.2722 5.07548 19.5422 5.15548 19.6622 5.37548L21.6622 8.83548C21.7822 9.05548 21.7322 9.32548 21.5422 9.47548L19.4322 11.1255C19.4722 11.4455 19.5022 11.7655 19.5022 12.1055ZM8.50216 12.1055C8.50216 14.0355 10.0722 15.6055 12.0022 15.6055C13.9322 15.6055 15.5022 14.0355 15.5022 12.1055C15.5022 10.1755 13.9322 8.60548 12.0022 8.60548C10.0722 8.60548 8.50216 10.1755 8.50216 12.1055Z" fill="black"/>
</mask>
<g mask="url(#mask0_1_3636)">
<rect y="0.105484" width="24" height="24" fill="#495057"/>
</g>
</svg>
