<svg width="20" height="30" viewBox="0 0 20 30" fill="none" xmlns="http://www.w3.org/2000/svg">
<path opacity="0.8" d="M4.44444 13.5H6.66667V16.5H4.44444V13.5ZM20 6V27C20 28.65 19 30 17.7778 30H2.22222C1.63285 30 1.06762 29.6839 0.650874 29.1213C0.234126 28.5587 0 27.7957 0 27L0.0111111 6C0.0111111 4.35 0.988889 3 2.22222 3H3.33333V0H5.55556V3H14.4444V0H16.6667V3H17.7778C19 3 20 4.35 20 6ZM2.22222 9H17.7778V6H2.22222V9ZM17.7778 27V12H2.22222V27H17.7778ZM13.3333 16.5H15.5556V13.5H13.3333V16.5ZM8.88889 16.5H11.1111V13.5H8.88889V16.5Z" fill="#8B8B8B"/>
</svg>
