<svg width="32" height="32" viewBox="0 0 32 32" fill="none" xmlns="http://www.w3.org/2000/svg">
<path d="M6 2H26C28.216 2 30 3.784 30 6V26C30 28.216 28.216 30 26 30H6C3.784 30 2 28.216 2 26V6C2 3.784 3.784 2 6 2Z" stroke="#212529" stroke-width="2" stroke-linecap="round" stroke-linejoin="round"/>
<path d="M8 8H10" stroke="#212529" stroke-width="2" stroke-linecap="round" stroke-linejoin="round"/>
<path d="M12 10C11.4696 10 10.9609 9.78929 10.5858 9.41421C10.2107 9.03914 10 8.53043 10 8C10 7.46957 10.2107 6.96086 10.5858 6.58579C10.9609 6.21071 11.4696 6 12 6C12.2626 6 12.5227 6.05173 12.7654 6.15224C13.008 6.25275 13.2285 6.40007 13.4142 6.58579C13.5999 6.7715 13.7472 6.99198 13.8478 7.23463C13.9483 7.47728 14 7.73736 14 8C14 8.26264 13.9483 8.52272 13.8478 8.76537C13.7472 9.00802 13.5999 9.2285 13.4142 9.41421C13.2285 9.59993 13.008 9.74725 12.7654 9.84776C12.5227 9.94827 12.2626 10 12 10Z" stroke="#212529" stroke-width="2" stroke-linecap="round" stroke-linejoin="round"/>
<path d="M14 8.00004L24 8" stroke="#212529" stroke-width="2" stroke-linecap="round" stroke-linejoin="round"/>
<path d="M24 16H22" stroke="#212529" stroke-width="2" stroke-linecap="round" stroke-linejoin="round"/>
<path d="M20 18C20.5304 18 21.0391 17.7893 21.4142 17.4142C21.7893 17.0391 22 16.5304 22 16C22 15.4696 21.7893 14.9609 21.4142 14.5858C21.0391 14.2107 20.5304 14 20 14C19.4696 14 18.9609 14.2107 18.5858 14.5858C18.2107 14.9609 18 15.4696 18 16C18 16.5304 18.2107 17.0391 18.5858 17.4142C18.9609 17.7893 19.4696 18 20 18Z" stroke="#212529" stroke-width="2" stroke-linecap="round" stroke-linejoin="round"/>
<path d="M18 16L8 16" stroke="#212529" stroke-width="2" stroke-linecap="round" stroke-linejoin="round"/>
<path d="M8 24H10" stroke="#212529" stroke-width="2" stroke-linecap="round" stroke-linejoin="round"/>
<path d="M12 26C11.4696 26 10.9609 25.7893 10.5858 25.4142C10.2107 25.0391 10 24.5304 10 24C10 23.4696 10.2107 22.9609 10.5858 22.5858C10.9609 22.2107 11.4696 22 12 22C12.2626 22 12.5227 22.0517 12.7654 22.1522C13.008 22.2528 13.2285 22.4001 13.4142 22.5858C13.5999 22.7715 13.7472 22.992 13.8478 23.2346C13.9483 23.4773 14 23.7374 14 24C14 24.2626 13.9483 24.5227 13.8478 24.7654C13.7472 25.008 13.5999 25.2285 13.4142 25.4142C13.2285 25.5999 13.008 25.7472 12.7654 25.8478C12.5227 25.9483 12.2626 26 12 26Z" stroke="#212529" stroke-width="2" stroke-linecap="round" stroke-linejoin="round"/>
<path d="M14 24L24 24" stroke="#212529" stroke-width="2" stroke-linecap="round" stroke-linejoin="round"/>
</svg>
