<svg width="32" height="32" viewBox="0 0 32 32" fill="none" xmlns="http://www.w3.org/2000/svg">
<path fill-rule="evenodd" clip-rule="evenodd" d="M21.3332 12C21.3332 13.4145 20.7713 14.7711 19.7711 15.7713C18.7709 16.7715 17.4143 17.3334 15.9998 17.3334C14.5853 17.3334 13.2288 16.7715 12.2286 15.7713C11.2284 14.7711 10.6665 13.4145 10.6665 12C10.6665 10.5855 11.2284 9.22898 12.2286 8.22878C13.2288 7.22859 14.5853 6.66669 15.9998 6.66669C17.4143 6.66669 18.7709 7.22859 19.7711 8.22878C20.7713 9.22898 21.3332 10.5855 21.3332 12ZM18.6665 12C18.6665 12.7073 18.3856 13.3855 17.8855 13.8856C17.3854 14.3857 16.7071 14.6667 15.9998 14.6667C15.2926 14.6667 14.6143 14.3857 14.1142 13.8856C13.6141 13.3855 13.3332 12.7073 13.3332 12C13.3332 11.2928 13.6141 10.6145 14.1142 10.1144C14.6143 9.61431 15.2926 9.33335 15.9998 9.33335C16.7071 9.33335 17.3854 9.61431 17.8855 10.1144C18.3856 10.6145 18.6665 11.2928 18.6665 12Z" fill="#212529"/>
<path fill-rule="evenodd" clip-rule="evenodd" d="M15.9999 1.33334C7.89992 1.33334 1.33325 7.90001 1.33325 16C1.33325 24.1 7.89992 30.6667 15.9999 30.6667C24.0999 30.6667 30.6666 24.1 30.6666 16C30.6666 7.90001 24.0999 1.33334 15.9999 1.33334ZM3.99992 16C3.99992 18.7867 4.95059 21.352 6.54392 23.3893C7.66289 21.9199 9.10645 20.729 10.7618 19.9098C12.4172 19.0905 14.2396 18.6651 16.0866 18.6667C17.9097 18.6649 19.7091 19.0794 21.3478 19.8784C22.9865 20.6774 24.4212 21.8399 25.5426 23.2773C26.6978 21.7621 27.4757 19.9936 27.8118 18.1181C28.1479 16.2426 28.0325 14.3141 27.4752 12.492C26.918 10.6699 25.9349 9.00674 24.6072 7.64006C23.2796 6.27338 21.6456 5.24249 19.8404 4.63269C18.0353 4.02289 16.1109 3.85171 14.2264 4.13331C12.3419 4.41491 10.5516 5.1412 9.00361 6.25208C7.45558 7.36296 6.19433 8.8265 5.32422 10.5216C4.45412 12.2167 4.00016 14.0946 3.99992 16ZM15.9999 28C13.2452 28.0041 10.5736 27.0565 8.43725 25.3173C9.29716 24.0863 10.4417 23.0812 11.7735 22.3876C13.1053 21.6939 14.585 21.3323 16.0866 21.3333C17.5695 21.3322 19.0312 21.6848 20.3505 22.3619C21.6697 23.039 22.8084 24.0212 23.6719 25.2267C21.519 27.0223 18.8034 28.0039 15.9999 28Z" fill="#212529"/>
</svg>
